<svg width="25" height="25" viewBox="0 0 25 25" fill="none" xmlns="http://www.w3.org/2000/svg">
<path d="M22.82 24.2304C23.2105 24.621 23.8436 24.6212 24.2343 24.2307C24.6249 23.8403 24.6251 23.2071 24.2346 22.8165L22.82 24.2304ZM18.7552 17.3341C18.3648 16.9435 17.7316 16.9433 17.341 17.3337C16.9503 17.7242 16.9502 18.3573 17.3406 18.748L18.7552 17.3341ZM20.7876 20.7822L21.4949 20.0753L21.4949 20.0753L20.7876 20.7822ZM19.8013 11.1587C19.8013 15.9277 15.9346 19.794 11.1643 19.794V21.794C17.0388 21.794 21.8013 17.0326 21.8013 11.1587H19.8013ZM11.1643 19.794C6.39408 19.794 2.52734 15.9277 2.52734 11.1587H0.527344C0.527344 17.0326 5.28985 21.794 11.1643 21.794V19.794ZM2.52734 11.1587C2.52734 6.38974 6.39408 2.52344 11.1643 2.52344V0.523438C5.28985 0.523438 0.527344 5.28484 0.527344 11.1587H2.52734ZM11.1643 2.52344C15.9346 2.52344 19.8013 6.38974 19.8013 11.1587H21.8013C21.8013 5.28484 17.0388 0.523438 11.1643 0.523438V2.52344ZM24.2346 22.8165L21.4949 20.0753L20.0803 21.4892L22.82 24.2304L24.2346 22.8165ZM21.4949 20.0753L18.7552 17.3341L17.3406 18.748L20.0803 21.4892L21.4949 20.0753Z" fill="white"/>
</svg>
