<svg width="44" height="44" viewBox="0 0 44 44" fill="none" xmlns="http://www.w3.org/2000/svg">
<circle cx="22" cy="22" r="22" fill="#D2272C"/>
<path d="M32.6713 17.0939C32.2531 15.2593 31.4663 14.5536 30.0122 14.304C29.1856 14.1737 25.182 14 21.995 14C18.8081 14 14.8244 14.1737 13.9878 14.304C12.5437 14.5645 11.7569 15.2701 11.3386 17.0939C11.1992 17.7018 11 21.0779 11 22.3589V22.6411C11 23.9221 11.1892 27.2982 11.3386 27.9061C11.7569 29.7299 12.5437 30.4355 13.9878 30.696C14.8144 30.8263 18.828 31 22.005 31H21.995C25.182 31 29.1856 30.8263 30.0122 30.696C31.4563 30.4464 32.2431 29.7407 32.6713 27.9061C32.8108 27.2874 33 23.9221 33 22.6411V22.3589C33 21.0779 32.8108 17.7018 32.6713 17.0939ZM19.3658 26.5722V18.4278L25.6442 22.4349L19.3658 26.583V26.5722Z" fill="white"/>
</svg>
