<svg width="62" height="58" viewBox="0 0 62 58" fill="none" xmlns="http://www.w3.org/2000/svg">
<path d="M27 56H7C5.89543 56 5 55.1046 5 54V3C5 1.89543 5.89543 1 7 1H49C50.1046 1 51 1.89543 51 3V24.5" stroke="black" stroke-width="2" stroke-linecap="round" stroke-linejoin="round"/>
<circle cx="44" cy="44" r="14" fill="#D00042"/>
<path d="M44.9575 39.0137C44.5684 38.6218 43.9352 38.6196 43.5433 39.0088C43.1514 39.3979 43.1492 40.0311 43.5384 40.423L44.9575 39.0137ZM47.7904 44.7046C48.1796 45.0965 48.8128 45.0987 49.2046 44.7096C49.5965 44.3204 49.5987 43.6872 49.2096 43.2954L47.7904 44.7046ZM50.7386 42.1482L51.4449 42.8561V42.8561L50.7386 42.1482ZM50.7198 40.8704L50.0345 41.5987L50.7198 40.8704ZM42.7243 50.1454L42.0179 49.4375L42.7243 50.1454ZM38.2518 45.6938L37.5347 44.9969H37.5347L38.2518 45.6938ZM46.0431 37.6769L46.7603 38.3738V38.3738L46.0431 37.6769ZM47.2963 37.6489L46.611 38.3772L47.2963 37.6489ZM43.5384 40.423L47.7904 44.7046L49.2096 43.2954L44.9575 39.0137L43.5384 40.423ZM45.326 36.9799L37.5347 44.9969L38.9689 46.3908L46.7603 38.3738L45.326 36.9799ZM37 46.3139V49.5156H39V46.3139H37ZM38.8926 51.4062H42.0931V49.4062H38.8926V51.4062ZM43.4306 50.8532L51.4449 42.8561L50.0322 41.4403L42.0179 49.4375L43.4306 50.8532ZM51.4051 40.1421L47.9815 36.9207L46.611 38.3772L50.0345 41.5987L51.4051 40.1421ZM51.4449 42.8561C52.2005 42.1021 52.1823 40.8735 51.4051 40.1421L50.0345 41.5987C49.9895 41.5563 49.9883 41.4841 50.0322 41.4403L51.4449 42.8561ZM42.0931 51.4062C42.5944 51.4062 43.0755 51.2076 43.4306 50.8532L42.0179 49.4375C42.0382 49.4173 42.0653 49.4062 42.0931 49.4062V51.4062ZM37 49.5156C37 50.5618 37.8493 51.4062 38.8926 51.4062V49.4062C38.9499 49.4062 39 49.4532 39 49.5156H37ZM37.5347 44.9969C37.192 45.3495 37 45.8218 37 46.3139H39C39 46.343 38.9886 46.3705 38.9689 46.3908L37.5347 44.9969ZM46.7603 38.3738C46.7195 38.4158 46.6534 38.4172 46.611 38.3772L47.9815 36.9207C47.2289 36.2124 46.0464 36.2387 45.326 36.9799L46.7603 38.3738Z" fill="white"/>
<path d="M13 13H38" stroke="#D00042" stroke-width="2" stroke-linecap="round" stroke-linejoin="round"/>
<path d="M13 20H30" stroke="#D00042" stroke-width="2" stroke-linecap="round" stroke-linejoin="round"/>
<path d="M13 27H30" stroke="#D00042" stroke-width="2" stroke-linecap="round" stroke-linejoin="round"/>
</svg>
