<svg width="20" height="20" viewBox="0 0 20 20" fill="none" xmlns="http://www.w3.org/2000/svg">
<path d="M16.6457 18.6472C17.7503 18.6472 18.6457 17.7518 18.6457 16.6472V5.70605C18.6457 4.60149 17.7503 3.70605 16.6457 3.70605H3.35156C2.24699 3.70605 1.35156 4.60148 1.35156 5.70605V13.0368V16.6472C1.35156 17.7518 2.24699 18.6472 3.35156 18.6472H16.6457Z" stroke="#1D1D1B" stroke-width="2" stroke-linecap="round" stroke-linejoin="round"/>
<path d="M18.5 8.23509H1.5M13.9239 1.17627V4.70545M6.08072 1.1765V4.70568" stroke="#1D1D1B" stroke-width="2" stroke-linecap="round" stroke-linejoin="round"/>
<path d="M4.70312 11.7646H7.23509V14.3529H4.70312V11.7646Z" fill="#1D1D1B"/>
<path d="M8.73126 11.7646H11.2632V14.3529H8.73126V11.7646Z" fill="#1D1D1B"/>
<path d="M12.7594 11.7646H15.2914V14.3529H12.7594V11.7646Z" fill="#1D1D1B"/>
</svg>
