<svg width="22" height="22" viewBox="0 0 22 22" fill="none" xmlns="http://www.w3.org/2000/svg">
<path d="M9.72386 1.46107L9.08516 0.691612L9.72386 1.46107ZM12.2789 1.46128L12.9177 0.691915V0.691915L12.2789 1.46128ZM2.72262 7.27245L3.36131 8.04191L2.72262 7.27245ZM19.2776 7.27246L18.6388 8.04182L19.2776 7.27246ZM8 14.2561C7.44772 14.2561 7 14.7038 7 15.2561C7 15.8084 7.44772 16.2561 8 16.2561V14.2561ZM14 16.2561C14.5523 16.2561 15 15.8084 15 15.2561C15 14.7038 14.5523 14.2561 14 14.2561V16.2561ZM19 8.81118V18.4006H21V8.81118H19ZM18 19.4006H4V21.4006H18V19.4006ZM3 18.4006V8.81137H1V18.4006H3ZM3.36131 8.04191L10.3625 2.23054L9.08516 0.691612L2.08392 6.50299L3.36131 8.04191ZM11.6401 2.23064L18.6388 8.04182L19.9164 6.5031L12.9177 0.691915L11.6401 2.23064ZM10.3625 2.23054C10.7329 1.92312 11.2697 1.92316 11.6401 2.23064L12.9177 0.691915C11.8067 -0.230523 10.1963 -0.230652 9.08516 0.691612L10.3625 2.23054ZM3 8.81137C3 8.51391 3.13242 8.23189 3.36131 8.04191L2.08392 6.50299C1.39727 7.07294 1 7.919 1 8.81137H3ZM4 19.4006C3.44772 19.4006 3 18.9529 3 18.4006H1C1 20.0575 2.34315 21.4006 4 21.4006V19.4006ZM19 18.4006C19 18.9529 18.5523 19.4006 18 19.4006V21.4006C19.6569 21.4006 21 20.0575 21 18.4006H19ZM21 8.81118C21 7.91897 20.6029 7.07305 19.9164 6.5031L18.6388 8.04182C18.8676 8.23181 19 8.51378 19 8.81118H21ZM8 16.2561H14V14.2561H8V16.2561Z" fill="#AEAEAE"/>
</svg>
