<svg width="22" height="22" viewBox="0 0 22 22" fill="none" xmlns="http://www.w3.org/2000/svg">
<path d="M3.22222 2H7.66667C8.34168 2 8.88889 2.54721 8.88889 3.22222V7.66667C8.88889 8.34168 8.34168 8.88889 7.66667 8.88889H3.22222C2.54721 8.88889 2 8.34168 2 7.66667V3.22222C2 2.54721 2.54721 2 3.22222 2ZM14.3333 2H18.7778C19.4528 2 20 2.54721 20 3.22222V7.66667C20 8.34168 19.4528 8.88889 18.7778 8.88889H14.3333C13.6583 8.88889 13.1111 8.34168 13.1111 7.66667V3.22222C13.1111 2.54721 13.6583 2 14.3333 2ZM3.22222 13.1111H7.66667C8.34168 13.1111 8.88889 13.6583 8.88889 14.3333V18.7778C8.88889 19.4528 8.34168 20 7.66667 20H3.22222C2.54721 20 2 19.4528 2 18.7778V14.3333C2 13.6583 2.54721 13.1111 3.22222 13.1111ZM14.3333 13.1111H18.7778C19.4528 13.1111 20 13.6583 20 14.3333V18.7778C20 19.4528 19.4528 20 18.7778 20H14.3333C13.6583 20 13.1111 19.4528 13.1111 18.7778V14.3333C13.1111 13.6583 13.6583 13.1111 14.3333 13.1111Z" stroke="#AEAEAE" stroke-width="2"/>
</svg>
