<svg width="22" height="22" viewBox="0 0 22 22" fill="none" xmlns="http://www.w3.org/2000/svg">
<path d="M9.81289 8.43751L9.10209 7.73411C8.95943 7.87828 8.86397 8.06242 8.82839 8.2621L9.81289 8.43751ZM16.383 1.79836L15.6722 1.09496L15.6722 1.09496L16.383 1.79836ZM20.2099 5.66556L19.4992 4.96216V4.96216L20.2099 5.66556ZM13.6399 12.3047L13.7881 13.2937C14.0015 13.2617 14.1988 13.1615 14.3507 13.0081L13.6399 12.3047ZM9 13L8.0155 12.8246C7.95902 13.1416 8.05867 13.4665 8.28321 13.6973C8.50776 13.9281 8.82973 14.0367 9.1482 13.989L9 13ZM10 3C10.5523 3 11 2.55228 11 2C11 1.44772 10.5523 1 10 1V3ZM21 11.5C21 10.9477 20.5523 10.5 20 10.5C19.4477 10.5 19 10.9477 19 11.5H21ZM10.5237 9.14091L17.0938 2.50176L15.6722 1.09496L9.10209 7.73411L10.5237 9.14091ZM17.0938 2.50176C17.7558 1.83275 18.8371 1.83275 19.4992 2.50176L20.9207 1.09496C19.476 -0.364986 17.1169 -0.364986 15.6722 1.09496L17.0938 2.50176ZM19.4992 2.50176C20.167 3.17658 20.167 4.28734 19.4992 4.96216L20.9207 6.36896C22.3598 4.91482 22.3598 2.5491 20.9207 1.09496L19.4992 2.50176ZM19.4992 4.96216L12.9291 11.6013L14.3507 13.0081L20.9207 6.36896L19.4992 4.96216ZM13.4917 11.3157L8.8518 12.011L9.1482 13.989L13.7881 13.2937L13.4917 11.3157ZM9.9845 13.1754L10.7974 8.61291L8.82839 8.2621L8.0155 12.8246L9.9845 13.1754ZM10 1H4V3H10V1ZM1 4V18H3V4H1ZM4 21H18V19H4V21ZM21 18V11.5H19V18H21ZM18 21C19.6569 21 21 19.6569 21 18H19C19 18.5523 18.5523 19 18 19V21ZM1 18C1 19.6569 2.34315 21 4 21V19C3.44772 19 3 18.5523 3 18H1ZM4 1C2.34315 1 1 2.34315 1 4H3C3 3.44772 3.44772 3 4 3V1Z" fill="#AEAEAE"/>
</svg>
