<svg width="22" height="22" viewBox="0 0 22 22" fill="none" xmlns="http://www.w3.org/2000/svg">
<path d="M18.6454 18.4283L20.8071 20.6367M9.80714 10.9453C6.05362 10.9453 2.90899 14.0223 2.04335 17.6551C1.78732 18.7296 2.70257 19.6368 3.80714 19.6368H9.30714M15.6978 6C15.6978 8.76142 13.4592 11 10.6978 11C7.93634 11 5.69777 8.76142 5.69777 6C5.69777 3.23858 7.93634 1 10.6978 1C13.4592 1 15.6978 3.23858 15.6978 6ZM19.5623 16.0755C19.5623 17.9748 18.0501 19.5144 16.1847 19.5144C14.3193 19.5144 12.8071 17.9748 12.8071 16.0755C12.8071 14.1763 14.3193 12.6367 16.1847 12.6367C18.0501 12.6367 19.5623 14.1763 19.5623 16.0755Z" stroke="#AEAEAE" stroke-width="2" stroke-linecap="round" stroke-linejoin="round"/>
</svg>
