<svg width="22" height="22" viewBox="0 0 22 22" fill="none" xmlns="http://www.w3.org/2000/svg">
<path d="M6.01041 4.90857C5.52884 5.17896 5.35765 5.78854 5.62805 6.27011C5.89844 6.75168 6.50802 6.92287 6.98959 6.65248L6.01041 4.90857ZM6.99887 14.4661C6.52022 14.1906 5.90884 14.3553 5.63332 14.8339C5.3578 15.3126 5.52248 15.924 6.00113 16.1995L6.99887 14.4661ZM14.7495 20.0813L15.2483 19.2146L14.7495 20.0813ZM14.7597 1.14284L15.2493 2.01479L14.7597 1.14284ZM2.1 6.69801H5.4V4.69801H2.1V6.69801ZM5.5 6.79325V14.4599H7.5V6.79325H5.5ZM5.4 14.5552H2.1V16.5552H5.4V14.5552ZM2 14.4599V6.79325H0V14.4599H2ZM2.1 14.5552C2.04068 14.5552 2 14.5084 2 14.4599H0C0 15.6212 0.944297 16.5552 2.1 16.5552V14.5552ZM5.5 14.4599C5.5 14.5084 5.45932 14.5552 5.4 14.5552V16.5552C6.5557 16.5552 7.5 15.6212 7.5 14.4599H5.5ZM5.4 6.69801C5.45932 6.69801 5.5 6.74473 5.5 6.79325H7.5C7.5 5.63199 6.5557 4.69801 5.4 4.69801V6.69801ZM2.1 4.69801C0.944298 4.69801 0 5.63199 0 6.79325H2C2 6.74473 2.04068 6.69801 2.1 6.69801V4.69801ZM6.98959 6.65248L15.2493 2.01479L14.2701 0.270882L6.01041 4.90857L6.98959 6.65248ZM15.4 2.09684V19.1331H17.4V2.09684H15.4ZM15.2483 19.2146L6.99887 14.4661L6.00113 16.1995L14.2506 20.9479L15.2483 19.2146ZM15.4 19.1331C15.4 19.1583 15.3942 19.1711 15.3892 19.1796C15.3825 19.1906 15.3702 19.2039 15.3516 19.2146C15.333 19.2253 15.3145 19.2297 15.2997 19.2299C15.288 19.2301 15.272 19.2282 15.2483 19.2146L14.2506 20.9479C15.6441 21.7501 17.4 20.7532 17.4 19.1331H15.4ZM15.2493 2.01479C15.2728 2.00158 15.2888 1.99973 15.3006 2.00003C15.3153 2.00039 15.3337 2.00485 15.3521 2.01555C15.3705 2.02625 15.3826 2.03949 15.3892 2.05059C15.3943 2.05908 15.4 2.07191 15.4 2.09684H17.4C17.4 0.486737 15.6635 -0.511486 14.2701 0.270882L15.2493 2.01479ZM19.1984 11.1724C19.1984 12.4307 18.1728 13.4581 16.8984 13.4581V15.4581C19.2692 15.4581 21.1984 13.5435 21.1984 11.1724H19.1984ZM16.8984 8.88672C18.1728 8.88672 19.1984 9.91415 19.1984 11.1724H21.1984C21.1984 8.80141 19.2692 6.88672 16.8984 6.88672V8.88672Z" fill="#AEAEAE"/>
</svg>
