<svg width="21" height="18" viewBox="0 0 21 18" fill="none" xmlns="http://www.w3.org/2000/svg">
<path d="M17.0475 11.9077V14.8205C17.0475 16.0257 16.0703 17 14.8615 17H3.186C1.97715 17 1 16.0257 1 14.8205V3.17954C1 1.97426 1.97715 1 3.186 1H8.13221" stroke="#6B6B6B" stroke-width="2" stroke-linecap="round" stroke-linejoin="round"/>
<path d="M14.8552 1.47488C14.8552 1.07664 15.3313 0.85593 15.6513 1.10583L19.8178 4.14093C20.0624 4.33192 20.0604 4.69357 19.8138 4.8821L15.6473 7.83227C15.3265 8.07753 14.8552 7.85612 14.8552 7.46016V1.47488Z" fill="#6B6B6B"/>
<path d="M15.0182 3C15.0182 3 8.52572 3.02109 8.00035 10.822C7.98822 11.0022 8.29185 11.0706 8.37398 10.9085C9.1526 9.37165 11.1314 6 15.0182 6V3Z" fill="#6B6B6B"/>
</svg>
