<svg width="22" height="22" viewBox="0 0 22 22" fill="none" xmlns="http://www.w3.org/2000/svg">
<g clip-path="url(#clip0_7228_45219)">
<path d="M17.803 18.5775L17.0653 14.3376C17.0653 14.3376 19.952 11.5111 20.0867 11.3843C21.5879 9.93937 21.2992 8.50708 19.5351 8.00641L14.7623 7.32196L12.6839 3.16453C11.7216 1.61182 10.3296 1.61182 9.37375 3.16453L7.2953 7.32196L2.52256 8.00641C0.752028 8.50708 0.469769 9.93937 1.97087 11.3843C2.09917 11.5111 4.99232 14.3376 4.99232 14.3376L4.2546 18.5775C3.96593 20.7069 5.30024 21.6068 7.2953 20.5674C7.47492 20.4724 11.0288 18.6725 11.0288 18.6725C11.0288 18.6725 14.5827 20.4724 14.7623 20.5674C16.7574 21.6068 18.0981 20.7069 17.803 18.5775V18.5775Z" stroke="#AEAEAE" stroke-width="2" stroke-linecap="round" stroke-linejoin="round"/>
</g>
<defs>
<clipPath id="clip0_7228_45219">
<rect width="22" height="22" fill="white"/>
</clipPath>
</defs>
</svg>
