<svg width="18" height="18" viewBox="0 0 18 18" fill="none" xmlns="http://www.w3.org/2000/svg">
<circle cx="9" cy="9" r="9" fill="#D00042"/>
<g clip-path="url(#clip0_5676_35826)">
<path d="M8.84126 11.1876C8.2967 11.1876 7.85564 10.778 7.85564 10.2723V9.64302C7.85071 9.46224 7.90245 8.43021 9.34886 7.61327C9.47453 7.54233 10.093 7.16476 10.0215 6.64531C9.92052 5.93593 9.30697 5.83066 8.94968 5.83066C8.43469 5.83066 8.02566 6.15561 7.94188 6.45767C7.80635 6.94737 7.26919 7.24256 6.74188 7.1167C6.21457 6.99085 5.8967 6.49199 6.03223 6.00229C6.35256 4.84211 7.57966 4 8.94968 4C10.3197 4 11.7415 4.74371 11.978 6.40732C12.1579 7.68192 11.2684 8.67277 10.3739 9.17849C9.9427 9.42105 9.8466 9.63844 9.82689 9.69108V10.2723C9.82689 10.778 9.38582 11.1876 8.84126 11.1876Z" fill="white"/>
<path d="M9.86867 13.0363C9.86867 13.5672 9.40542 13.9997 8.83129 13.9997C8.25717 13.9997 7.79639 13.5695 7.79639 13.0363C7.79639 12.5031 8.25963 12.0752 8.83129 12.0752C9.40296 12.0752 9.86867 12.5054 9.86867 13.0363Z" fill="white"/>
</g>
<defs>
<clipPath id="clip0_5676_35826">
<rect width="6" height="10" fill="white" transform="translate(6 4)"/>
</clipPath>
</defs>
</svg>
