<svg width="20" height="20" viewBox="0 0 20 20" fill="none" xmlns="http://www.w3.org/2000/svg">
<path d="M18.2914 19.7056C18.6811 20.097 19.3143 20.0983 19.7056 19.7086C20.097 19.3189 20.0983 18.6857 19.7086 18.2944L18.2914 19.7056ZM15.0516 13.618C14.6619 13.2267 14.0287 13.2254 13.6374 13.6151C13.246 14.0048 13.2447 14.638 13.6344 15.0293L15.0516 13.618ZM15.5822 8.82347C15.5822 10.6884 14.8325 12.3811 13.6251 13.6227L15.0589 15.017C16.6103 13.4217 17.5822 11.2359 17.5822 8.82347H15.5822ZM13.6251 13.6227C12.4285 14.853 10.6874 15.6469 8.79111 15.6469V17.6469C11.2428 17.6469 13.4966 16.6235 15.0589 15.017L13.6251 13.6227ZM8.79111 15.6469C5.04343 15.6469 2 12.5968 2 8.82347H0C0 13.6936 3.93105 17.6469 8.79111 17.6469V15.6469ZM2 8.82347C2 5.05009 5.04343 2 8.79111 2V0C3.93105 0 0 3.95335 0 8.82347H2ZM8.79111 2C12.5388 2 15.5822 5.05009 15.5822 8.82347H17.5822C17.5822 3.95335 13.6512 0 8.79111 0V2ZM19.7086 18.2944L15.0516 13.618L13.6344 15.0293L18.2914 19.7056L19.7086 18.2944Z" fill="#1D1D1B"/>
</svg>
