<svg width="112" height="24" viewBox="0 0 112 24" fill="none" xmlns="http://www.w3.org/2000/svg">
<path d="M12 3C6.47778 3 2 6.53889 2 10.9056C2 13.75 3.89444 16.2389 6.74444 17.6333C6.53333 18.4167 5.98889 20.4611 5.87778 20.9C5.74444 21.4444 6.07778 21.4389 6.29444 21.2889C6.46667 21.1722 9.03333 19.4278 10.1444 18.6722C10.7444 18.7611 11.3667 18.8111 12 18.8111C17.5222 18.8111 22 15.2722 22 10.9056C22 6.53889 17.5222 3 12 3Z" fill="#1D1D1B"/>
<path d="M50.5658 6.84888H46.1188V20.3331H50.5658V6.84888Z" fill="#1D1D1B"/>
<path d="M48.3687 1C46.9338 1 46 1.90754 46 3.09433C46 4.28112 46.9053 5.18866 48.3118 5.18866C49.8036 5.18866 50.7089 4.2489 50.7089 3.09433C50.6805 1.90754 49.8036 1 48.3687 1Z" fill="#1D1D1B"/>
<path d="M61.6754 6.54029C59.2782 6.54029 57.8433 7.83448 57.2626 8.72054H57.1771L56.9722 6.84639H53.1116C53.1686 8.06002 53.2255 9.46698 53.2255 11.1478V20.3307H57.6725V12.5548C57.6725 12.1681 57.701 11.7815 57.8206 11.5076C58.1451 10.7343 58.874 9.93418 60.1039 9.93418C61.7096 9.93418 62.353 11.121 62.353 12.8555V20.3307H66.8V12.3615C66.8 8.39297 64.6078 6.54029 61.6811 6.54029H61.6754Z" fill="#1D1D1B"/>
<path d="M92.6893 13.2364L92.3838 13.5419C90.5387 15.3869 90.5387 18.3701 92.3838 20.2151C94.2288 22.0601 97.212 22.0601 99.057 20.2151L102.214 17.0582C104.059 15.2132 104.059 12.23 102.214 10.385M107.911 11.3625L108.216 11.057C110.061 9.21198 110.061 6.22879 108.216 4.38377C106.371 2.53874 103.388 2.53874 101.543 4.38377L98.3861 7.54067C96.5411 9.3857 96.5411 12.3689 98.3861 14.2139" stroke="#1D1D1B" stroke-width="3" stroke-miterlimit="10" stroke-linecap="round"/>
</svg>
